<?xml version="1.0" encoding="utf-8"?>
<!-- Generator: Adobe Illustrator 27.5.0, SVG Export Plug-In . SVG Version: 6.00 Build 0)  -->
<svg version="1.1" xmlns="http://www.w3.org/2000/svg" xmlns:xlink="http://www.w3.org/1999/xlink" x="0px" y="0px"
	 viewBox="0 0 2200 2200" style="enable-background:new 0 0 2200 2200;" xml:space="preserve">
<g id="Objects">
	<path d="M2023.915,1141.688c-0.899-0.59-95.325-61.117-217.893-109.026c-0.018-0.007-0.036-0.014-0.054-0.021l37.911-92.432
		c1.737-4.235-0.007-9.097-4.04-11.262c-0.944-0.507-100.086-52.333-225.983-88.94c-159.52-46.398-332.405-69.924-513.855-69.924
		c-181.45,0-354.336,23.526-513.855,69.923c-125.897,36.608-225.039,88.433-225.983,88.941c-4.033,2.164-5.777,7.027-4.04,11.262
		l37.911,92.432c-0.016,0.006-0.031,0.012-0.047,0.018c-122.59,47.918-217.003,108.44-217.901,109.029
		c-2.868,1.883-4.404,5.24-3.954,8.64c0.45,3.401,2.807,6.243,6.065,7.314l195.22,64.203l-55.069,210.859
		c-0.925,3.542,0.404,7.288,3.353,9.456c1.569,1.154,3.428,1.736,5.292,1.736c1.639,0,3.282-0.45,4.733-1.357
		c0.022-0.014,0.077-0.049,0.099-0.062c7.193-4.58,178.857-112.795,412.332-168.079c0.168-0.04,0.33-0.095,0.494-0.144
		c0.112-0.034,0.226-0.061,0.337-0.098c0.214-0.073,0.422-0.161,0.629-0.25c0.079-0.034,0.162-0.061,0.24-0.098
		c0.282-0.131,0.557-0.276,0.823-0.435c0.07-0.042,0.134-0.092,0.203-0.135c0.194-0.123,0.387-0.248,0.57-0.385
		c0.098-0.073,0.188-0.156,0.283-0.233c0.148-0.12,0.296-0.239,0.435-0.369c0.097-0.09,0.187-0.188,0.28-0.283
		c0.128-0.13,0.256-0.259,0.377-0.397c0.027-0.031,0.057-0.057,0.083-0.088c0.052-0.062,0.094-0.13,0.144-0.193
		c0.143-0.178,0.28-0.36,0.409-0.549c0.072-0.106,0.142-0.213,0.21-0.321c0.047-0.075,0.101-0.146,0.145-0.223
		c0.068-0.117,0.123-0.24,0.185-0.36c0.055-0.106,0.113-0.211,0.164-0.319c0.114-0.241,0.214-0.487,0.305-0.736
		c0.025-0.067,0.055-0.132,0.078-0.199c0.109-0.32,0.198-0.645,0.27-0.974c0.018-0.082,0.027-0.165,0.043-0.247
		c0.047-0.249,0.087-0.5,0.112-0.752c0.012-0.116,0.017-0.232,0.025-0.349c0.014-0.225,0.02-0.449,0.017-0.674
		c-0.002-0.122-0.004-0.243-0.011-0.364c-0.013-0.235-0.037-0.468-0.069-0.702c-0.014-0.106-0.024-0.212-0.042-0.318
		c-0.058-0.337-0.13-0.672-0.227-1.004l-30.192-103.207c101.548-26.583,231.571-49.282,379.521-49.282s277.972,22.699,379.52,49.282
		l-30.192,103.207c-0.097,0.331-0.169,0.667-0.227,1.004c-0.018,0.106-0.028,0.212-0.042,0.319
		c-0.031,0.233-0.056,0.467-0.069,0.701c-0.006,0.122-0.009,0.244-0.011,0.365c-0.003,0.225,0.003,0.45,0.017,0.674
		c0.007,0.117,0.013,0.233,0.025,0.349c0.026,0.252,0.065,0.503,0.112,0.752c0.016,0.082,0.025,0.165,0.043,0.247
		c0.072,0.329,0.161,0.654,0.27,0.974c0.023,0.068,0.054,0.134,0.079,0.202c0.091,0.249,0.191,0.494,0.304,0.734
		c0.051,0.108,0.109,0.213,0.164,0.319c0.063,0.12,0.117,0.243,0.185,0.36c0.045,0.077,0.098,0.147,0.145,0.223
		c0.068,0.109,0.137,0.215,0.21,0.321c0.129,0.189,0.267,0.371,0.409,0.549c0.05,0.063,0.092,0.132,0.144,0.193
		c0.026,0.031,0.057,0.057,0.083,0.088c0.12,0.138,0.248,0.267,0.377,0.397c0.093,0.095,0.183,0.193,0.28,0.283
		c0.14,0.13,0.289,0.249,0.437,0.37c0.094,0.077,0.184,0.159,0.281,0.232c0.184,0.138,0.377,0.263,0.572,0.386
		c0.068,0.043,0.133,0.093,0.202,0.135c0.266,0.159,0.541,0.304,0.823,0.435c0.078,0.036,0.161,0.063,0.24,0.098
		c0.207,0.089,0.415,0.177,0.629,0.25c0.111,0.038,0.225,0.065,0.337,0.098c0.164,0.049,0.326,0.104,0.494,0.144
		c233.523,55.295,405.141,163.5,412.333,168.079c0.02,0.013,0.073,0.046,0.094,0.059c1.453,0.909,3.096,1.36,4.737,1.36
		c1.863,0,3.722-0.582,5.291-1.734c2.949-2.167,4.279-5.915,3.354-9.458l-55.069-210.859l195.22-64.203
		c3.259-1.072,5.615-3.914,6.066-7.314C2028.319,1146.929,2026.782,1143.57,2023.915,1141.688z M392.826,1218.24
		c1.192-4.565-1.371-9.271-5.853-10.745l-184.901-60.809c31.733-18.982,107.047-61.671,198.426-97.389
		c0.105-0.041,0.211-0.082,0.316-0.123l77.51,188.978c0.943,2.3,2.803,4.104,5.13,4.976c0.671,0.251,1.365,0.408,2.064,0.493
		l-0.002,0.015l208.226,25.212c-172.235,47.232-304.862,119.213-352.549,147.096L392.826,1218.24z M703.218,1164.619l26.5,90.588
		l-211.339-25.588C552.507,1214.389,616.539,1188.415,703.218,1164.619z M491.217,1222.505l-115.44-281.457
		c24.698-12.33,110.489-53.391,215.356-83.885c157.898-45.925,329.105-69.212,508.866-69.212s350.968,23.286,508.866,69.212
		c104.866,30.493,190.658,71.554,215.356,83.884l-115.44,281.458c-48.392-23.298-286.995-129.666-608.782-129.666
		C778.126,1092.84,539.482,1199.265,491.217,1222.505z M1681.621,1229.619l-211.339,25.588l26.5-90.588
		C1583.461,1188.415,1647.492,1214.389,1681.621,1229.619z M1813.027,1207.495c-4.483,1.474-7.045,6.18-5.853,10.745l51.632,197.704
		c-47.712-27.901-180.31-99.864-352.548-147.095l208.226-25.212l-0.001-0.013c0.699-0.085,1.392-0.244,2.063-0.495
		c2.327-0.873,4.187-2.676,5.13-4.976l77.51-188.978c0.108,0.042,0.216,0.083,0.324,0.126
		c91.361,35.711,166.68,78.403,198.417,97.385L1813.027,1207.495z"/>
</g>
</svg>
